<svg width="210" height="180" viewBox="0 0 210 180" fill="none" xmlns="http://www.w3.org/2000/svg">
<path d="M110.743 169.825L200.694 64.8809C203.014 62.1745 203.109 58.2092 200.92 55.3954L165.92 10.3954C164.499 8.56855 162.314 7.5 160 7.5H130H80H50C47.6856 7.5 45.5008 8.56855 44.0799 10.3954L9.07986 55.3954C6.89141 58.2092 6.98577 62.1745 9.30558 64.8809L99.2573 169.825C99.4522 170.056 99.6603 170.276 99.8804 170.481C100.287 170.861 100.735 171.194 101.215 171.475C102.339 172.132 103.638 172.5 105 172.5C105.195 172.5 105.388 172.492 105.579 172.478C106.588 172.4 107.553 172.12 108.426 171.672C108.879 171.439 109.307 171.161 109.703 170.842C110.08 170.539 110.429 170.198 110.743 169.825Z" stroke="black" stroke-width="15" stroke-linejoin="round"/>
<path d="M80 15H50L15 60H65L80 15Z" fill="#BDDDF4"/>
<path d="M195 60L160 15H130L145 60H195Z" fill="#5DADEC"/>
<path d="M145 60H195L105 165L145 60Z" fill="#4289C1"/>
<path d="M65 60H15L105 165L65 60Z" fill="#8CCAF7"/>
<path d="M80 15L65 60H145L130 15H80Z" fill="#8CCAF7"/>
<path d="M105 165L65 60H145L105 165Z" fill="#5DADEC"/>
</svg>
